<?xml version="1.0" encoding="UTF-8"?>
<svg id="Layer_2" data-name="Layer 2" xmlns="http://www.w3.org/2000/svg" viewBox="0 0 459.26 128.88">
  <defs>
    <style>
      .cls-1 {
        fill: #112b32;
      }
    </style>
  </defs>
  <g id="Layer_1-2" data-name="Layer 1">
    <g>
      <g>
        <polygon class="cls-1" points="152.97 78.08 135.42 44.03 124.9 44.03 124.9 99.39 134.25 99.39 134.25 61.43 148.35 88.74 157.6 88.74 171.7 61.43 171.7 99.39 181.05 99.39 181.05 44.03 170.52 44.03 152.97 78.08"/>
        <path class="cls-1" d="M229.38,60.74c-1.26-1.23-2.73-2.24-4.39-3.02-2.73-1.28-5.97-1.93-9.6-1.93-3.1,0-6.02.56-8.69,1.67-2.67,1.11-5.01,2.68-6.96,4.65-1.95,1.97-3.48,4.34-4.57,7.04-1.08,2.69-1.63,5.65-1.63,8.79s.55,6.11,1.63,8.82c1.08,2.72,2.62,5.11,4.57,7.08,1.95,1.98,4.29,3.54,6.96,4.65,2.67,1.11,5.59,1.67,8.68,1.67,5.93,0,10.62-1.68,13.99-5.02v4.23h8.96v-42.89h-8.96v4.24ZM221.47,90.45c-1.63.67-3.46,1.01-5.44,1.01s-3.72-.34-5.32-1.01c-1.6-.67-3-1.61-4.17-2.8-1.17-1.19-2.1-2.64-2.77-4.29-.67-1.65-1.01-3.48-1.01-5.41s.34-3.74,1.01-5.37c.67-1.63,1.61-3.07,2.78-4.26,1.17-1.19,2.57-2.13,4.17-2.8,1.6-.67,3.39-1.01,5.32-1.01s3.83.33,5.46.98c1.62.64,3.03,1.57,4.19,2.75,1.17,1.19,2.09,2.62,2.73,4.25.65,1.63.98,3.47.98,5.46s-.33,3.84-.98,5.5c-.64,1.65-1.56,3.07-2.72,4.23s-2.58,2.1-4.21,2.77Z"/>
        <path class="cls-1" d="M279.21,77.14c-1.57-.87-3.35-1.53-5.3-1.98-1.85-.42-3.64-.82-5.39-1.19-1.24-.26-2.42-.54-3.56-.85-1.05-.29-1.97-.66-2.75-1.1-.71-.41-1.26-.9-1.66-1.45-.35-.49-.52-1.17-.52-2.01,0-1.39.53-2.41,1.68-3.2,1.25-.87,3.08-1.32,5.45-1.32s4.31.47,5.64,1.4c1.23.86,1.87,1.98,1.96,3.43l.07,1.17h9.18l-.06-1.3c-.17-4.05-1.8-7.28-4.82-9.61-2.95-2.27-6.92-3.41-11.8-3.41s-8.94,1.17-11.86,3.46c-3.01,2.37-4.54,5.6-4.54,9.62,0,2.48.5,4.56,1.48,6.17.97,1.58,2.24,2.87,3.8,3.84,1.49.93,3.17,1.64,5,2.12,1.73.45,3.5.84,5.25,1.16,1.35.26,2.64.53,3.86.82,1.14.27,2.15.62,3,1.05.78.39,1.4.88,1.87,1.47.41.52.6,1.2.6,2.07,0,1.15,0,4.2-7.52,4.2-2.76,0-4.95-.46-6.52-1.37-1.45-.84-2.3-2.05-2.6-3.69l-.19-1.02h-8.91v1.24c0,1.99.45,3.83,1.33,5.48.88,1.64,2.13,3.04,3.73,4.17,1.56,1.1,3.45,1.97,5.63,2.59,2.15.61,4.58.91,7.2.91,5.2,0,9.34-1.15,12.31-3.41,3.07-2.34,4.63-5.62,4.63-9.75,0-2.46-.55-4.5-1.64-6.07-1.05-1.52-2.41-2.75-4.05-3.65Z"/>
        <path class="cls-1" d="M302.99,39.3c-1.65,0-3.06.57-4.19,1.71-1.13,1.13-1.7,2.54-1.7,4.19s.57,3.06,1.7,4.19c1.13,1.13,2.54,1.71,4.19,1.71s3.06-.57,4.19-1.7c1.13-1.13,1.71-2.54,1.71-4.19s-.57-3.06-1.71-4.19c-1.13-1.13-2.54-1.71-4.19-1.71Z"/>
        <path class="cls-1" d="M298.35,102.33c0,2.59-.48,3.77-.89,4.3-.64.84-2.2,1.01-3.39,1.01s-2.71-.15-4.53-.46l-1.45-.24v8.3l1.07.15c1.12.16,2.17.29,3.16.4,1.02.11,1.98.17,2.86.17,4.3,0,7.45-1.11,9.34-3.31,1.88-2.17,2.79-5.45,2.79-10v-46.14h-8.96v45.83Z"/>
        <rect class="cls-1" x="321.4" y="56.5" width="8.96" height="42.89"/>
        <path class="cls-1" d="M325.87,39.3c-1.65,0-3.06.57-4.19,1.71-1.13,1.13-1.71,2.54-1.71,4.19s.57,3.06,1.71,4.19c1.13,1.13,2.54,1.71,4.19,1.71s3.06-.57,4.19-1.7c1.13-1.13,1.7-2.54,1.7-4.19s-.57-3.06-1.71-4.19c-1.13-1.13-2.54-1.7-4.19-1.7Z"/>
        <path class="cls-1" d="M377.11,60.74c-1.26-1.23-2.73-2.24-4.39-3.02-2.73-1.28-5.97-1.93-9.6-1.93-3.1,0-6.02.56-8.69,1.67-2.67,1.11-5.01,2.68-6.96,4.65-1.95,1.97-3.49,4.34-4.57,7.04-1.08,2.69-1.63,5.65-1.63,8.79s.55,6.11,1.63,8.82c1.08,2.72,2.62,5.11,4.57,7.08,1.95,1.98,4.29,3.54,6.96,4.65,2.67,1.11,5.59,1.67,8.68,1.67,5.93,0,10.62-1.68,13.99-5.02v4.23h8.96v-59.3h-8.96v20.65ZM369.2,90.45c-1.63.67-3.46,1.01-5.44,1.01s-3.72-.34-5.32-1.01c-1.6-.67-3-1.61-4.17-2.8-1.17-1.19-2.1-2.64-2.77-4.29-.67-1.65-1.01-3.48-1.01-5.41s.34-3.74,1.01-5.37c.67-1.63,1.61-3.07,2.78-4.26,1.17-1.19,2.57-2.13,4.17-2.8,1.6-.67,3.39-1.01,5.32-1.01s3.83.33,5.46.98c1.62.64,3.03,1.57,4.19,2.75,1.17,1.19,2.09,2.62,2.73,4.25.65,1.63.98,3.47.98,5.46s-.33,3.84-.98,5.5c-.64,1.65-1.56,3.07-2.72,4.23s-2.58,2.1-4.21,2.77Z"/>
        <rect class="cls-1" x="400.15" y="40.09" width="8.96" height="59.3"/>
        <polygon class="cls-1" points="449.55 56.5 438.04 85.68 427.19 56.5 417.5 56.5 433.28 97.82 426 116.2 435.38 116.2 459.26 56.5 449.55 56.5"/>
      </g>
      <g>
        <path class="cls-1" d="M65.77,35.64c-7.8-5.67-15.64-9.19-15.71-9.23l-.28-.13-.28.13c-.08.03-7.94,3.57-15.71,9.23-10.34,7.52-15.58,15.02-15.58,22.29v70.95h63.16V57.93c0-7.27-5.24-14.77-15.58-22.29ZM38.42,42.05c4.18-3.04,8.42-5.44,11.35-6.96,2.93,1.52,7.18,3.91,11.35,6.96,7.94,5.78,12.31,11.42,12.31,15.88v63.04H26.11v-63.04c0-4.47,4.37-10.11,12.31-15.88Z"/>
        <path class="cls-1" d="M49.99.07l-.22-.07-.21.07C47.54.71,0,16.18,0,43.29v85.59h12.66v-7.91h-4.74V43.29c0-10.55,11.32-19.48,20.81-25.13,8.16-4.85,16.37-8.11,20.69-9.68l.36.15.36-.15c4.32,1.56,12.53,4.83,20.69,9.68,9.49,5.64,20.81,14.58,20.81,25.13v77.68h-4.74v7.91h12.66V43.29C99.55,16.17,52.01.71,49.99.07Z"/>
      </g>
    </g>
  </g>
</svg>
